<svg xmlns="http://www.w3.org/2000/svg" xmlns:xlink="http://www.w3.org/1999/xlink" width="398" zoomAndPan="magnify" viewBox="0 0 298.5 282.749996" height="377" preserveAspectRatio="xMidYMid meet" version="1.2"><defs><clipPath id="c32680dc31"><path d="M 15 0.113281 L 147 0.113281 L 147 282.390625 L 15 282.390625 Z M 15 0.113281 "/></clipPath><clipPath id="63b0bf257b"><path d="M 168 0.113281 L 298 0.113281 L 298 282.390625 L 168 282.390625 Z M 168 0.113281 "/></clipPath><clipPath id="52e3be0fd1"><path d="M 46.574219 212 L 72 212 L 72 231 L 46.574219 231 Z M 46.574219 212 "/></clipPath><clipPath id="4a273ac579"><path d="M 49 224 L 67 224 L 67 249.742188 L 49 249.742188 Z M 49 224 "/></clipPath></defs><g id="16ddd0ecaf"><g clip-rule="nonzero" clip-path="url(#c32680dc31)"><path style=" stroke:none;fill-rule:nonzero;fill:#00704a;fill-opacity:1;" d="M 112.683594 6.578125 C 112.683594 31.277344 112.683594 154.453125 112.683594 181.707031 C 102.949219 154.867188 69.402344 62.339844 60.292969 37.203125 C 9.917969 81.0625 -0.00390625 165.195312 38.457031 219.605469 L 67.292969 199.265625 C 51.679688 176.191406 45.84375 143.738281 53.035156 115.824219 C 65.925781 151.375 98.355469 240.828125 110.792969 275.132812 C 122.242188 279.007812 134.140625 281.382812 146.300781 282.21875 C 146.300781 232.320312 146.300781 50.035156 146.300781 0.121094 C 134.648438 0.917969 123.386719 3.125 112.683594 6.578125 Z M 112.683594 6.578125 "/></g><g clip-rule="nonzero" clip-path="url(#63b0bf257b)"><path style=" stroke:none;fill-rule:nonzero;fill:#00704a;fill-opacity:1;" d="M 297.765625 141.304688 C 297.765625 146.992188 297.429688 152.601562 296.773438 158.113281 C 295.390625 169.820312 292.574219 181.085938 288.503906 191.734375 C 273.523438 230.957031 241.582031 261.800781 201.648438 275.285156 C 190.960938 278.894531 179.695312 281.265625 168.03125 282.214844 L 168.03125 191.734375 L 201.648438 191.734375 L 201.648438 237.308594 C 202.289062 237.003906 202.925781 236.695312 203.558594 236.378906 C 203.824219 236.25 204.085938 236.117188 204.347656 235.984375 C 204.769531 235.769531 205.191406 235.554688 205.609375 235.332031 C 205.769531 235.25 205.925781 235.167969 206.085938 235.082031 C 206.265625 234.984375 206.453125 234.886719 206.632812 234.789062 C 207.53125 234.308594 208.417969 233.8125 209.300781 233.300781 C 209.558594 233.15625 209.8125 233.003906 210.070312 232.851562 C 210.375 232.675781 210.675781 232.496094 210.980469 232.3125 C 211.269531 232.140625 211.554688 231.96875 211.839844 231.792969 C 211.867188 231.773438 211.898438 231.757812 211.925781 231.738281 C 212.203125 231.566406 212.480469 231.394531 212.753906 231.222656 C 213.109375 231 213.464844 230.777344 213.816406 230.550781 C 214.261719 230.261719 214.703125 229.972656 215.144531 229.675781 C 215.214844 229.628906 215.289062 229.582031 215.359375 229.53125 C 215.480469 229.453125 215.597656 229.375 215.714844 229.292969 C 215.910156 229.160156 216.105469 229.03125 216.300781 228.894531 C 216.589844 228.699219 216.878906 228.496094 217.164062 228.296875 C 217.453125 228.097656 217.738281 227.890625 218.027344 227.6875 C 218.261719 227.519531 218.5 227.347656 218.734375 227.179688 C 219.066406 226.9375 219.394531 226.695312 219.722656 226.449219 C 220.007812 226.238281 220.285156 226.027344 220.566406 225.816406 C 220.917969 225.546875 221.269531 225.277344 221.621094 225.003906 C 221.824219 224.84375 222.027344 224.6875 222.222656 224.527344 C 222.488281 224.320312 222.75 224.109375 223.011719 223.898438 C 223.296875 223.667969 223.578125 223.4375 223.859375 223.207031 C 224.128906 222.984375 224.398438 222.757812 224.664062 222.535156 C 224.933594 222.308594 225.199219 222.082031 225.46875 221.851562 C 225.679688 221.671875 225.890625 221.488281 226.101562 221.304688 C 226.207031 221.214844 226.308594 221.125 226.410156 221.035156 C 226.84375 220.652344 227.277344 220.265625 227.707031 219.878906 C 228.527344 219.132812 229.335938 218.371094 230.132812 217.601562 C 230.347656 217.398438 230.554688 217.191406 230.765625 216.984375 C 231.144531 216.613281 231.523438 216.238281 231.894531 215.859375 C 232.191406 215.558594 232.488281 215.257812 232.777344 214.953125 C 233.0625 214.660156 233.339844 214.367188 233.621094 214.070312 C 233.804688 213.875 233.988281 213.679688 234.167969 213.484375 C 234.761719 212.847656 235.34375 212.199219 235.925781 211.546875 C 236.15625 211.285156 236.386719 211.019531 236.617188 210.753906 C 236.84375 210.488281 237.074219 210.222656 237.300781 209.957031 C 238.535156 208.503906 239.726562 207.019531 240.882812 205.5 C 241.035156 205.300781 241.183594 205.105469 241.332031 204.90625 C 241.949219 204.085938 242.554688 203.253906 243.144531 202.414062 C 243.324219 202.160156 243.503906 201.90625 243.679688 201.648438 C 243.8125 201.460938 243.941406 201.269531 244.070312 201.078125 C 244.195312 200.898438 244.320312 200.710938 244.445312 200.527344 C 245.242188 199.351562 246.011719 198.15625 246.753906 196.945312 C 246.886719 196.734375 247.015625 196.527344 247.140625 196.316406 C 247.335938 196 247.523438 195.683594 247.710938 195.367188 C 247.875 195.097656 248.03125 194.824219 248.191406 194.550781 C 248.449219 194.109375 248.703125 193.667969 248.949219 193.222656 C 249.085938 192.976562 249.222656 192.734375 249.359375 192.488281 C 249.5 192.238281 249.636719 191.984375 249.769531 191.734375 C 249.972656 191.363281 250.171875 190.984375 250.367188 190.609375 C 250.511719 190.339844 250.65625 190.066406 250.796875 189.792969 C 250.921875 189.546875 251.046875 189.300781 251.171875 189.054688 C 251.289062 188.824219 251.402344 188.59375 251.519531 188.359375 C 251.65625 188.082031 251.792969 187.804688 251.925781 187.523438 C 252.472656 186.40625 252.992188 185.277344 253.496094 184.140625 C 253.621094 183.855469 253.746094 183.570312 253.867188 183.285156 C 254.019531 182.9375 254.167969 182.585938 254.3125 182.238281 C 254.410156 182.015625 254.503906 181.785156 254.59375 181.558594 C 254.832031 180.980469 255.066406 180.402344 255.289062 179.816406 C 255.40625 179.527344 255.515625 179.238281 255.625 178.949219 C 255.625 178.949219 255.625 178.945312 255.628906 178.941406 C 255.71875 178.703125 255.808594 178.46875 255.894531 178.226562 C 255.933594 178.132812 255.96875 178.039062 256 177.945312 C 256.09375 177.691406 256.1875 177.4375 256.277344 177.179688 C 256.386719 176.886719 256.492188 176.59375 256.59375 176.296875 C 256.695312 176 256.796875 175.703125 256.898438 175.40625 C 257.253906 174.359375 257.59375 173.304688 257.914062 172.246094 C 258.011719 171.933594 258.105469 171.625 258.195312 171.308594 C 258.289062 170.992188 258.382812 170.671875 258.472656 170.351562 C 258.539062 170.113281 258.605469 169.875 258.671875 169.636719 C 258.726562 169.453125 258.777344 169.261719 258.824219 169.078125 C 258.855469 168.964844 258.886719 168.851562 258.917969 168.738281 C 258.976562 168.515625 259.035156 168.292969 259.09375 168.070312 C 259.1875 167.710938 259.277344 167.351562 259.367188 166.992188 C 259.371094 166.984375 259.371094 166.976562 259.371094 166.964844 C 259.460938 166.609375 259.546875 166.25 259.632812 165.886719 C 259.699219 165.621094 259.757812 165.351562 259.820312 165.085938 C 259.863281 164.90625 259.902344 164.726562 259.941406 164.546875 C 260.019531 164.207031 260.09375 163.867188 260.167969 163.523438 C 260.230469 163.210938 260.296875 162.898438 260.363281 162.582031 C 260.445312 162.179688 260.523438 161.78125 260.601562 161.378906 C 260.660156 161.066406 260.71875 160.75 260.777344 160.433594 C 260.855469 159.992188 260.9375 159.542969 261.007812 159.097656 C 261.066406 158.773438 261.121094 158.445312 261.171875 158.113281 L 168.03125 158.113281 L 168.03125 0.398438 C 179.695312 1.351562 190.960938 3.71875 201.648438 7.328125 C 240.808594 20.554688 272.285156 50.46875 287.617188 88.609375 L 254.953125 101.945312 C 254.832031 101.628906 254.703125 101.316406 254.574219 101.003906 C 254.492188 100.808594 254.414062 100.613281 254.328125 100.417969 C 254.273438 100.273438 254.210938 100.128906 254.148438 99.988281 C 254.058594 99.773438 253.96875 99.558594 253.875 99.339844 C 253.75 99.046875 253.621094 98.757812 253.492188 98.464844 C 253.339844 98.121094 253.183594 97.773438 253.027344 97.429688 C 252.824219 96.980469 252.617188 96.535156 252.40625 96.09375 C 252.25 95.757812 252.089844 95.421875 251.925781 95.089844 C 251.34375 93.878906 250.734375 92.679688 250.101562 91.5 C 249.96875 91.246094 249.832031 90.988281 249.691406 90.738281 C 249.238281 89.898438 248.773438 89.066406 248.296875 88.242188 C 248.140625 87.976562 247.984375 87.707031 247.828125 87.441406 C 247.410156 86.730469 246.984375 86.03125 246.550781 85.335938 C 246.445312 85.164062 246.335938 84.988281 246.222656 84.816406 C 244.953125 82.796875 243.617188 80.828125 242.222656 78.910156 C 242.03125 78.652344 241.84375 78.394531 241.648438 78.136719 C 240.773438 76.953125 239.875 75.789062 238.949219 74.652344 C 238.800781 74.460938 238.644531 74.269531 238.488281 74.082031 C 238.292969 73.84375 238.097656 73.605469 237.898438 73.371094 C 237.730469 73.167969 237.5625 72.964844 237.390625 72.761719 C 236.429688 71.628906 235.449219 70.519531 234.445312 69.433594 C 234.207031 69.167969 233.964844 68.910156 233.71875 68.652344 C 233.667969 68.59375 233.609375 68.535156 233.554688 68.476562 C 233.3125 68.214844 233.0625 67.957031 232.8125 67.699219 C 231.378906 66.207031 229.902344 64.761719 228.382812 63.359375 C 228.191406 63.179688 228 63.003906 227.804688 62.828125 C 227.628906 62.667969 227.457031 62.511719 227.28125 62.355469 C 227.070312 62.164062 226.855469 61.976562 226.644531 61.785156 C 226.289062 61.472656 225.933594 61.160156 225.574219 60.851562 C 225.261719 60.582031 224.949219 60.316406 224.632812 60.050781 C 224.335938 59.800781 224.035156 59.550781 223.734375 59.304688 C 223.316406 58.964844 222.898438 58.621094 222.476562 58.285156 C 222.261719 58.113281 222.046875 57.945312 221.828125 57.773438 C 220.21875 56.507812 218.570312 55.292969 216.886719 54.125 C 216.703125 53.996094 216.511719 53.863281 216.328125 53.738281 C 215.230469 52.984375 214.121094 52.253906 212.996094 51.542969 C 212.785156 51.410156 212.574219 51.277344 212.363281 51.144531 C 212.066406 50.960938 211.761719 50.773438 211.460938 50.589844 C 211.132812 50.390625 210.800781 50.191406 210.472656 49.996094 C 210.132812 49.796875 209.792969 49.597656 209.453125 49.402344 C 208.324219 48.746094 207.183594 48.113281 206.03125 47.5 C 205.691406 47.324219 205.355469 47.144531 205.015625 46.972656 C 203.90625 46.398438 202.78125 45.84375 201.648438 45.308594 L 201.648438 124.496094 L 296.773438 124.496094 C 297.429688 130.011719 297.765625 135.617188 297.765625 141.304688 Z M 297.765625 141.304688 "/></g><path style=" stroke:none;fill-rule:evenodd;fill:#00704a;fill-opacity:1;" d="M 71.039062 210.40625 C 72.878906 210.453125 74.699219 211.214844 76.023438 212.519531 C 77.796875 214.269531 79.460938 215.910156 80.964844 217.480469 C 81.953125 218.492188 82.582031 219.726562 82.875 221.210938 C 83.253906 223.027344 82.785156 225.183594 81.683594 226.691406 C 81.300781 227.230469 80.738281 227.859375 80.066406 228.53125 C 77.953125 230.621094 75.910156 232.664062 73.914062 234.664062 C 73.574219 235.023438 73.238281 235 72.945312 234.617188 C 70.835938 231.921875 70.699219 228.554688 72.609375 225.746094 C 72.878906 225.320312 73.574219 224.578125 74.652344 223.523438 C 75.777344 222.421875 76.964844 221.253906 78.222656 219.996094 C 78.695312 219.523438 78.988281 219.144531 79.078125 218.851562 C 79.347656 218.066406 79.121094 217.390625 78.449219 216.828125 C 77.820312 216.289062 77.078125 216.378906 76.359375 216.71875 C 75.84375 216.964844 75.214844 217.144531 74.472656 217.234375 C 72.09375 217.527344 70.027344 216.851562 68.273438 215.167969 C 67.535156 214.425781 66.792969 213.6875 66.050781 212.921875 C 65.804688 212.652344 65.828125 212.40625 66.117188 212.160156 C 67.601562 210.96875 69.242188 210.382812 71.039062 210.40625 Z M 71.039062 210.40625 "/><g clip-rule="nonzero" clip-path="url(#52e3be0fd1)"><path style=" stroke:none;fill-rule:evenodd;fill:#00704a;fill-opacity:1;" d="M 68.542969 224.21875 C 66.410156 224.960938 64.050781 224.691406 62.144531 223.457031 C 61.605469 223.117188 60.953125 222.535156 60.1875 221.769531 C 58.796875 220.332031 57.3125 218.851562 55.785156 217.347656 C 55.15625 216.71875 54.4375 216.558594 53.675781 216.898438 C 53.292969 217.054688 53.003906 217.324219 52.824219 217.707031 C 52.261719 218.738281 53.003906 219.523438 53.226562 220.511719 C 53.878906 223.296875 53.226562 225.722656 51.226562 227.746094 C 50.554688 228.441406 49.878906 229.117188 49.207031 229.765625 C 49.070312 229.902344 48.9375 229.96875 48.78125 230.035156 C 48.710938 230.035156 48.667969 230.035156 48.621094 230.015625 C 48.421875 229.902344 48.261719 229.746094 48.105469 229.519531 C 45.835938 226.464844 46.128906 222.46875 48.800781 219.773438 C 50.375 218.175781 51.992188 216.582031 53.609375 214.964844 C 54.976562 213.617188 57 212.855469 58.953125 212.921875 C 60.90625 212.988281 62.636719 213.777344 64.140625 215.300781 C 66.320312 217.457031 68.476562 219.613281 70.632812 221.792969 C 70.949219 222.109375 71.328125 222.46875 70.949219 222.828125 C 70.273438 223.433594 69.488281 223.90625 68.542969 224.21875 Z M 68.542969 224.21875 "/></g><g clip-rule="nonzero" clip-path="url(#4a273ac579)"><path style=" stroke:none;fill-rule:evenodd;fill:#00704a;fill-opacity:1;" d="M 57.132812 242.570312 C 59.539062 242.074219 62.03125 242.816406 63.78125 244.546875 C 64.433594 245.175781 65.128906 245.894531 65.894531 246.65625 C 66.050781 246.792969 66.140625 246.972656 66.1875 247.171875 C 66.1875 247.21875 66.1875 247.261719 66.164062 247.308594 C 66.027344 247.53125 65.847656 247.710938 65.648438 247.847656 C 63.492188 249.328125 61.246094 249.710938 58.910156 248.949219 C 57.222656 248.386719 56.28125 247.441406 54.777344 245.960938 C 53.5625 244.746094 52.351562 243.535156 51.160156 242.300781 C 48.78125 239.875 48.398438 236.054688 50.238281 233.226562 C 50.597656 232.6875 51.25 231.96875 52.195312 231.023438 C 54.257812 228.980469 56.234375 227.003906 58.144531 225.074219 C 58.503906 224.714844 58.839844 224.734375 59.132812 225.117188 C 61.558594 228.195312 61.3125 232.28125 58.550781 235.066406 C 56.953125 236.683594 55.292969 238.371094 53.539062 240.097656 C 53.273438 240.367188 53.089844 240.636719 53.003906 240.929688 C 52.644531 241.960938 53.339844 243.128906 54.460938 243.265625 C 54.796875 243.308594 55.15625 243.242188 55.539062 243.085938 C 56.078125 242.859375 56.617188 242.679688 57.132812 242.570312 Z M 57.132812 242.570312 "/></g><path style=" stroke:none;fill-rule:evenodd;fill:#00704a;fill-opacity:1;" d="M 67.195312 243.738281 C 65.421875 241.941406 63.421875 239.917969 61.15625 237.652344 C 60.816406 237.335938 61.042969 236.933594 61.355469 236.707031 C 62.863281 235.605469 64.433594 235.066406 66.117188 235.113281 C 67.398438 235.15625 68.613281 235.515625 69.78125 236.191406 C 70.339844 236.527344 71.082031 237.15625 71.957031 238.078125 C 73.351562 239.492188 74.832031 240.972656 76.429688 242.523438 C 76.675781 242.792969 76.988281 242.929688 77.324219 242.972656 C 79.054688 243.21875 79.839844 241.625 79.191406 240.1875 C 78.222656 238.101562 78.449219 235.628906 79.527344 233.675781 C 79.886719 233.046875 80.449219 232.351562 81.1875 231.632812 C 81.839844 231.023438 82.46875 230.417969 83.074219 229.8125 L 83.074219 229.789062 C 83.234375 229.65625 83.480469 229.65625 83.636719 229.8125 L 83.636719 229.835938 C 84.871094 231.25 85.480469 232.890625 85.5 234.6875 C 85.523438 236.550781 84.714844 238.480469 83.457031 239.761719 C 81.773438 241.445312 80.089844 243.152344 78.359375 244.859375 C 77.214844 246.027344 75.710938 246.679688 73.84375 246.8125 C 71.914062 246.972656 70.183594 246.410156 68.65625 245.105469 C 68.230469 244.746094 67.757812 244.296875 67.195312 243.738281 Z M 67.195312 243.738281 "/></g></svg>